<mxfile host="app.diagrams.net" modified="2024-05-30T11:26:34.056Z" agent="Mozilla/5.0 (Macintosh; Intel Mac OS X 10_15_7) AppleWebKit/605.1.15 (KHTML, like Gecko) Version/17.5 Safari/605.1.15" etag="g29i7d1o0fjVBeMUJzdz" version="24.4.4" type="device" pages="3">
  <diagram name="System Context" id="vNsD87Ibh9uPpgsmAd--">
    <mxGraphModel dx="1264" dy="951" grid="1" gridSize="10" guides="1" tooltips="1" connect="1" arrows="1" fold="1" page="1" pageScale="1" pageWidth="827" pageHeight="1169" math="0" shadow="0">
      <root>
        <mxCell id="0" />
        <mxCell id="1" parent="0" />
        <mxCell id="4HuRpPjtfUgsFaOigqf7-1" value="Todo App" style="rounded=1;whiteSpace=wrap;html=1;fillColor=#d5e8d4;strokeColor=#82b366;" vertex="1" parent="1">
          <mxGeometry x="340" y="380" width="120" height="60" as="geometry" />
        </mxCell>
        <mxCell id="4HuRpPjtfUgsFaOigqf7-2" value="&lt;font style=&quot;font-size: 15px;&quot;&gt;User&lt;/font&gt;" style="shape=umlActor;verticalLabelPosition=top;verticalAlign=bottom;html=1;outlineConnect=0;labelPosition=center;align=center;" vertex="1" parent="1">
          <mxGeometry x="385" y="160" width="30" height="60" as="geometry" />
        </mxCell>
        <mxCell id="4HuRpPjtfUgsFaOigqf7-7" value="Web Browser&lt;div&gt;(Client)&lt;/div&gt;" style="rounded=1;whiteSpace=wrap;html=1;fillColor=#f5f5f5;fontColor=#333333;strokeColor=#666666;" vertex="1" parent="1">
          <mxGeometry x="340" y="270" width="120" height="60" as="geometry" />
        </mxCell>
        <mxCell id="4HuRpPjtfUgsFaOigqf7-8" value="" style="endArrow=classic;html=1;rounded=0;" edge="1" parent="1">
          <mxGeometry width="50" height="50" relative="1" as="geometry">
            <mxPoint x="399.5" y="220" as="sourcePoint" />
            <mxPoint x="399.5" y="260" as="targetPoint" />
          </mxGeometry>
        </mxCell>
        <mxCell id="4HuRpPjtfUgsFaOigqf7-11" value="Operates" style="edgeLabel;html=1;align=center;verticalAlign=middle;resizable=0;points=[];" vertex="1" connectable="0" parent="4HuRpPjtfUgsFaOigqf7-8">
          <mxGeometry x="-0.2" y="-1" relative="1" as="geometry">
            <mxPoint as="offset" />
          </mxGeometry>
        </mxCell>
        <mxCell id="4HuRpPjtfUgsFaOigqf7-10" value="" style="endArrow=classic;html=1;rounded=0;" edge="1" parent="1">
          <mxGeometry width="50" height="50" relative="1" as="geometry">
            <mxPoint x="399.5" y="336" as="sourcePoint" />
            <mxPoint x="399.5" y="376" as="targetPoint" />
          </mxGeometry>
        </mxCell>
        <mxCell id="4HuRpPjtfUgsFaOigqf7-12" value="Take over HTTP" style="edgeLabel;html=1;align=center;verticalAlign=middle;resizable=0;points=[];" vertex="1" connectable="0" parent="4HuRpPjtfUgsFaOigqf7-10">
          <mxGeometry x="-0.2" relative="1" as="geometry">
            <mxPoint as="offset" />
          </mxGeometry>
        </mxCell>
        <mxCell id="4HuRpPjtfUgsFaOigqf7-13" value="Trello API" style="rounded=1;whiteSpace=wrap;html=1;fillColor=#dae8fc;strokeColor=#6c8ebf;" vertex="1" parent="1">
          <mxGeometry x="340" y="500" width="120" height="60" as="geometry" />
        </mxCell>
        <mxCell id="4HuRpPjtfUgsFaOigqf7-14" value="" style="endArrow=classic;html=1;rounded=0;" edge="1" parent="1">
          <mxGeometry width="50" height="50" relative="1" as="geometry">
            <mxPoint x="399.5" y="450" as="sourcePoint" />
            <mxPoint x="399.5" y="490" as="targetPoint" />
          </mxGeometry>
        </mxCell>
        <mxCell id="4HuRpPjtfUgsFaOigqf7-15" value="via HTTP API" style="edgeLabel;html=1;align=center;verticalAlign=middle;resizable=0;points=[];" vertex="1" connectable="0" parent="4HuRpPjtfUgsFaOigqf7-14">
          <mxGeometry x="-0.2" relative="1" as="geometry">
            <mxPoint as="offset" />
          </mxGeometry>
        </mxCell>
      </root>
    </mxGraphModel>
  </diagram>
  <diagram id="buBUCtMRxxxUrbmjVcei" name="Container Diagram">
    <mxGraphModel dx="1264" dy="951" grid="1" gridSize="10" guides="1" tooltips="1" connect="1" arrows="1" fold="1" page="1" pageScale="1" pageWidth="827" pageHeight="1169" math="0" shadow="0">
      <root>
        <mxCell id="0" />
        <mxCell id="1" parent="0" />
        <mxCell id="NB06raNo5u6kkpkC1Ogs-1" value="&lt;b&gt;Todo App&lt;/b&gt;" style="rounded=1;whiteSpace=wrap;html=1;fillColor=#f5f5f5;strokeColor=#666666;verticalAlign=bottom;align=right;labelPosition=left;verticalLabelPosition=top;fontSize=15;fontColor=#333333;" vertex="1" parent="1">
          <mxGeometry x="240" y="350" width="320" height="230" as="geometry" />
        </mxCell>
        <mxCell id="NB06raNo5u6kkpkC1Ogs-18" value="" style="edgeStyle=orthogonalEdgeStyle;rounded=0;orthogonalLoop=1;jettySize=auto;html=1;" edge="1" parent="1" source="NB06raNo5u6kkpkC1Ogs-3" target="NB06raNo5u6kkpkC1Ogs-11">
          <mxGeometry relative="1" as="geometry" />
        </mxCell>
        <mxCell id="NB06raNo5u6kkpkC1Ogs-19" value="Talks over HTTP" style="edgeLabel;html=1;align=center;verticalAlign=middle;resizable=0;points=[];" vertex="1" connectable="0" parent="NB06raNo5u6kkpkC1Ogs-18">
          <mxGeometry x="-0.3667" relative="1" as="geometry">
            <mxPoint as="offset" />
          </mxGeometry>
        </mxCell>
        <mxCell id="NB06raNo5u6kkpkC1Ogs-3" value="Web Browser&lt;div&gt;(Client)&lt;/div&gt;" style="rounded=1;whiteSpace=wrap;html=1;fillColor=#f5f5f5;fontColor=#333333;strokeColor=#666666;" vertex="1" parent="1">
          <mxGeometry x="340" y="240" width="120" height="60" as="geometry" />
        </mxCell>
        <mxCell id="NB06raNo5u6kkpkC1Ogs-8" value="Trello API" style="rounded=1;whiteSpace=wrap;html=1;fillColor=#dae8fc;strokeColor=#6c8ebf;" vertex="1" parent="1">
          <mxGeometry x="340" y="640" width="120" height="60" as="geometry" />
        </mxCell>
        <mxCell id="NB06raNo5u6kkpkC1Ogs-16" value="" style="edgeStyle=orthogonalEdgeStyle;rounded=0;orthogonalLoop=1;jettySize=auto;html=1;" edge="1" parent="1" source="NB06raNo5u6kkpkC1Ogs-11" target="NB06raNo5u6kkpkC1Ogs-12">
          <mxGeometry relative="1" as="geometry" />
        </mxCell>
        <mxCell id="NB06raNo5u6kkpkC1Ogs-17" value="Passes Request to" style="edgeLabel;html=1;align=center;verticalAlign=middle;resizable=0;points=[];" vertex="1" connectable="0" parent="NB06raNo5u6kkpkC1Ogs-16">
          <mxGeometry x="-0.3" y="-2" relative="1" as="geometry">
            <mxPoint as="offset" />
          </mxGeometry>
        </mxCell>
        <mxCell id="NB06raNo5u6kkpkC1Ogs-11" value="Flask webserver" style="rounded=1;whiteSpace=wrap;html=1;fillColor=#fff2cc;strokeColor=#d6b656;" vertex="1" parent="1">
          <mxGeometry x="340" y="390" width="120" height="60" as="geometry" />
        </mxCell>
        <mxCell id="NB06raNo5u6kkpkC1Ogs-14" value="" style="edgeStyle=orthogonalEdgeStyle;rounded=0;orthogonalLoop=1;jettySize=auto;html=1;" edge="1" parent="1" source="NB06raNo5u6kkpkC1Ogs-12" target="NB06raNo5u6kkpkC1Ogs-8">
          <mxGeometry relative="1" as="geometry" />
        </mxCell>
        <mxCell id="NB06raNo5u6kkpkC1Ogs-15" value="via HTTP API" style="edgeLabel;html=1;align=center;verticalAlign=middle;resizable=0;points=[];" vertex="1" connectable="0" parent="NB06raNo5u6kkpkC1Ogs-14">
          <mxGeometry x="0.0444" relative="1" as="geometry">
            <mxPoint as="offset" />
          </mxGeometry>
        </mxCell>
        <mxCell id="NB06raNo5u6kkpkC1Ogs-12" value="Todo Application&lt;div&gt;Code&lt;/div&gt;&lt;div&gt;(Python WSGI App)&lt;/div&gt;" style="rounded=1;whiteSpace=wrap;html=1;fillColor=#d5e8d4;strokeColor=#82b366;" vertex="1" parent="1">
          <mxGeometry x="340" y="490" width="120" height="60" as="geometry" />
        </mxCell>
      </root>
    </mxGraphModel>
  </diagram>
  <diagram id="iIgYRDkQ383Xq4iwJhA7" name="Component Diagram">
    <mxGraphModel dx="2091" dy="951" grid="1" gridSize="10" guides="1" tooltips="1" connect="1" arrows="1" fold="1" page="1" pageScale="1" pageWidth="827" pageHeight="1169" math="0" shadow="0">
      <root>
        <mxCell id="0" />
        <mxCell id="1" parent="0" />
        <mxCell id="8-tomTuT_RTmrAvkDvTB-1" value="&lt;b&gt;Todo Application code&lt;/b&gt;&lt;div style=&quot;text-align: center;&quot;&gt;&lt;font style=&quot;font-size: 12px;&quot;&gt;(Python WSGI App)&lt;/font&gt;&lt;/div&gt;" style="rounded=1;whiteSpace=wrap;html=1;fillColor=#f5f5f5;strokeColor=#666666;verticalAlign=bottom;align=right;labelPosition=left;verticalLabelPosition=top;fontSize=15;fontColor=#333333;" vertex="1" parent="1">
          <mxGeometry x="160" y="350" width="450" height="250" as="geometry" />
        </mxCell>
        <mxCell id="8-tomTuT_RTmrAvkDvTB-5" value="Trello API" style="rounded=1;whiteSpace=wrap;html=1;fillColor=#dae8fc;strokeColor=#6c8ebf;" vertex="1" parent="1">
          <mxGeometry x="340" y="630" width="120" height="60" as="geometry" />
        </mxCell>
        <mxCell id="8-tomTuT_RTmrAvkDvTB-16" value="" style="edgeStyle=orthogonalEdgeStyle;rounded=0;orthogonalLoop=1;jettySize=auto;html=1;entryX=0.5;entryY=0;entryDx=0;entryDy=0;curved=1;exitX=0.5;exitY=1;exitDx=0;exitDy=0;" edge="1" parent="1" source="8-tomTuT_RTmrAvkDvTB-8" target="8-tomTuT_RTmrAvkDvTB-11">
          <mxGeometry relative="1" as="geometry" />
        </mxCell>
        <mxCell id="8-tomTuT_RTmrAvkDvTB-25" value="Passes request to" style="edgeLabel;html=1;align=center;verticalAlign=middle;resizable=0;points=[];" vertex="1" connectable="0" parent="8-tomTuT_RTmrAvkDvTB-16">
          <mxGeometry x="-0.3102" y="-1" relative="1" as="geometry">
            <mxPoint x="1" as="offset" />
          </mxGeometry>
        </mxCell>
        <mxCell id="8-tomTuT_RTmrAvkDvTB-8" value="Flask webserver" style="rounded=1;whiteSpace=wrap;html=1;fillColor=#fff2cc;strokeColor=#d6b656;" vertex="1" parent="1">
          <mxGeometry x="340" y="230" width="120" height="60" as="geometry" />
        </mxCell>
        <mxCell id="8-tomTuT_RTmrAvkDvTB-24" style="edgeStyle=orthogonalEdgeStyle;rounded=0;orthogonalLoop=1;jettySize=auto;html=1;exitX=1;exitY=0.75;exitDx=0;exitDy=0;entryX=0.25;entryY=0;entryDx=0;entryDy=0;" edge="1" parent="1" source="8-tomTuT_RTmrAvkDvTB-11" target="8-tomTuT_RTmrAvkDvTB-14">
          <mxGeometry relative="1" as="geometry" />
        </mxCell>
        <mxCell id="8-tomTuT_RTmrAvkDvTB-11" value="Webserver Routes&lt;div&gt;(app.py)&lt;/div&gt;" style="rounded=1;whiteSpace=wrap;html=1;" vertex="1" parent="1">
          <mxGeometry x="180" y="375" width="120" height="60" as="geometry" />
        </mxCell>
        <mxCell id="8-tomTuT_RTmrAvkDvTB-20" value="" style="edgeStyle=orthogonalEdgeStyle;rounded=0;orthogonalLoop=1;jettySize=auto;html=1;" edge="1" parent="1" source="8-tomTuT_RTmrAvkDvTB-12" target="8-tomTuT_RTmrAvkDvTB-11">
          <mxGeometry relative="1" as="geometry" />
        </mxCell>
        <mxCell id="8-tomTuT_RTmrAvkDvTB-12" value="&lt;div&gt;HTML Template&lt;/div&gt;" style="rounded=1;whiteSpace=wrap;html=1;" vertex="1" parent="1">
          <mxGeometry x="180" y="508" width="120" height="60" as="geometry" />
        </mxCell>
        <mxCell id="8-tomTuT_RTmrAvkDvTB-22" style="edgeStyle=orthogonalEdgeStyle;rounded=0;orthogonalLoop=1;jettySize=auto;html=1;entryX=0.75;entryY=0;entryDx=0;entryDy=0;" edge="1" parent="1" source="8-tomTuT_RTmrAvkDvTB-13" target="8-tomTuT_RTmrAvkDvTB-14">
          <mxGeometry relative="1" as="geometry" />
        </mxCell>
        <mxCell id="8-tomTuT_RTmrAvkDvTB-23" style="edgeStyle=orthogonalEdgeStyle;rounded=0;orthogonalLoop=1;jettySize=auto;html=1;exitX=0;exitY=0.25;exitDx=0;exitDy=0;entryX=1;entryY=0.5;entryDx=0;entryDy=0;" edge="1" parent="1" source="8-tomTuT_RTmrAvkDvTB-13" target="8-tomTuT_RTmrAvkDvTB-11">
          <mxGeometry relative="1" as="geometry" />
        </mxCell>
        <mxCell id="8-tomTuT_RTmrAvkDvTB-13" value="&lt;div&gt;Data Classes&lt;/div&gt;&lt;div&gt;(Item / ViewModel)&lt;/div&gt;" style="rounded=1;whiteSpace=wrap;html=1;" vertex="1" parent="1">
          <mxGeometry x="470" y="390" width="120" height="60" as="geometry" />
        </mxCell>
        <mxCell id="8-tomTuT_RTmrAvkDvTB-19" value="" style="edgeStyle=orthogonalEdgeStyle;rounded=0;orthogonalLoop=1;jettySize=auto;html=1;exitX=0.5;exitY=1;exitDx=0;exitDy=0;" edge="1" parent="1" source="8-tomTuT_RTmrAvkDvTB-14" target="8-tomTuT_RTmrAvkDvTB-5">
          <mxGeometry relative="1" as="geometry">
            <mxPoint x="390" y="580" as="sourcePoint" />
          </mxGeometry>
        </mxCell>
        <mxCell id="8-tomTuT_RTmrAvkDvTB-14" value="&lt;div&gt;Trello Client&lt;br&gt;&lt;/div&gt;" style="rounded=1;whiteSpace=wrap;html=1;" vertex="1" parent="1">
          <mxGeometry x="340" y="510" width="120" height="60" as="geometry" />
        </mxCell>
      </root>
    </mxGraphModel>
  </diagram>
</mxfile>
